<svg width="84" height="35" viewBox="0 0 84 35" fill="none" xmlns="http://www.w3.org/2000/svg">
<g clip-path="url(#clip0_6_511)">
<path d="M10.8 27.1C12.2 27.1 13.4 26.6 13.4 25.3C13.4 24.4 12.8 23.9 11.7 23.6L9.3 23C5.5 22 4.1 20.1 4.1 17.7C4.1 14.5 6.5 12 10.9 12C14.4 12 17.2 13.7 17.7 16.7L13.5 17.7C13.4 16.5 12.3 15.8 11 15.8C9.6 15.8 8.7 16.5 8.7 17.6C8.7 18.5 9.3 19 10.7 19.4L13 20C16.3 20.9 18 22.7 18 25.3C18 28.6 15.4 30.8 10.8 30.8C6.3 30.8 3.9 28.6 3.5 25.7L7.8 25C8 26.3 9.1 27.1 10.8 27.1Z" fill="#181819"/>
<path d="M20.5 7V12.5V16.4V30.4H25.1V16.4H28.5V12.5H25.1V7H20.5Z" fill="#181819"/>
<path d="M34.3 19.9H42.9001C42.7001 17.2 41.1 15.9 38.8 15.9C36.3 15.9 34.8 17.3 34.3 19.9ZM47.7001 23.1H34.3C34.6 25.8 36.7 26.8 38.8 26.8C41 26.8 42.3 25.8 43.1 24.2L47 25.7C45.7 28.8 42.5 30.7 38.8 30.7C33.5 30.7 29.8 27 29.8 21.3C29.8 15.7 33.4 11.8 38.8 11.8C44.1 11.8 47.7001 15.5 47.7001 21.3C47.7001 21.5 47.7001 23.1 47.7001 23.1Z" fill="#181819"/>
<path d="M78 12.5H73.3V30.3H78V12.5Z" fill="#181819"/>
<path d="M59.8 26.6C57 26.6 54.9 24.6 54.9 21.4C54.9 18.2 57 16.2 59.8 16.2C62.7 16.2 64.7 18.2 64.7 21.4C64.7 24.6 62.7 26.6 59.8 26.6ZM69.5 25.8V22.2V3.5H64.8V14.4C63.5 12.7 61.2 12 59.1 12C53.9 12 50 15.7 50 21.5C50 27.7 53.8 30.9 59 30.9C61.4 30.9 63.7 29.9 64.9 28.2C65 29.1 65 29.8 65.2 30.4H69.5V25.8Z" fill="#181819"/>
<path d="M77.987 3.5016L77.9734 8.2016L82.6734 8.21523L82.687 3.51523L77.987 3.5016Z" fill="#181819"/>
</g>
<defs>
<clipPath id="clip0_6_511">
<rect width="80" height="28" fill="white" transform="translate(3.5 3.5)"/>
</clipPath>
</defs>
</svg>
